<svg xmlns="http://www.w3.org/2000/svg" xmlns:xlink="http://www.w3.org/1999/xlink" viewBox="0 0 142 83" preserveAspectRatio="xMidYMid" style="display: block; shape-rendering: auto; background: transparent;" width="142" height="83"><style type="text/css">
  .ld-text text {
    text-anchor: middle;
    dominant-baseline: middle;
    font-size: 72px;
    opacity: 0;
    user-select: none;
    pointer-events: none;
  }
</style>
<g style="transform-origin:71px 41.5px;transform:scale(1)" class="ld-text">
<g transform="translate(71,41.5)">
  <g transform="scale(0.9000) translate(0,0)"><g class="path" style="opacity: 1; transform-origin: -40.52px 4.61px; transform: matrix3d(0.91, 0, 0, 0, 0, 0.91, 0, 0, 0, 0, 0.91, 0, 0, 0, 0, 1); animation: 2.22222s linear -1.17333s infinite normal forwards running animate-mcaiv3vezz; transform-box: view-box;"><path d="M24.72 62.66L24.72 62.66Q33.12 62.66 37.80 59.22Q42.48 55.78 42.48 50.10L42.48 50.10Q42.48 46.02 40.44 42.90Q38.40 39.78 35.36 37.74Q32.32 35.70 29.16 33.70Q26 31.70 23.28 28.66Q20.56 25.62 19.68 21.78L19.68 21.78Q12.40 19.62 10.08 12.74L10.08 12.74Q9.20 10.10 9.20 7.22Q9.20 4.34 10.08 1.22L10.08 1.22Q11.92-4.94 16.08-8.06L16.08-8.06L16.96-6.78Q13.20-4.06 11.52 1.70L11.52 1.70Q10.72 4.58 10.72 7.22Q10.72 9.86 11.52 12.26L11.52 12.26Q13.44 18.10 19.44 20.10L19.44 20.10Q19.28 19.22 19.28 17.38L19.28 17.38Q19.28 6.90 26.88 0.42Q34.48-6.06 45.44-6.06L45.44-6.06Q52.64-6.06 56.96-2.14L56.96-2.14Q60.64 1.30 60.64 6.30Q60.64 11.30 57.28 14.94Q53.92 18.58 48.24 18.58L48.24 18.58Q45.12 18.58 43.12 17.38L43.12 17.38Q39.04 20.50 33.44 21.86L33.44 21.86Q35.04 23.38 40.92 27.46Q46.80 31.54 49.72 35.26Q52.64 38.98 52.64 43.94L52.64 43.94Q52.64 53.06 45.56 58.74Q38.48 64.42 27.64 64.42Q16.80 64.42 11.28 59.62L11.28 59.62Q6.48 55.54 6.48 49.66Q6.48 43.78 10.28 39.58Q14.08 35.38 19.76 35.38Q25.44 35.38 28.16 37.90Q30.88 40.42 30.88 44.02Q30.88 47.62 28.68 50.42Q26.48 53.22 22.96 53.22Q19.44 53.22 17.36 50.98L17.36 50.98Q15.44 49.06 15.20 46.18L15.20 46.18Q15.12 45.38 15.20 45.22L15.20 45.22L16.72 45.30Q16.64 48.10 18.48 49.94L18.48 49.94Q20 51.62 22.92 51.62Q25.84 51.62 27.60 49.34Q29.36 47.06 29.36 44.06Q29.36 41.06 27.28 39.22L27.28 39.22Q24.96 36.90 19.84 36.90Q14.72 36.90 11.36 40.62Q8 44.34 8 49.58Q8 54.82 12.32 58.50L12.32 58.50Q14.88 60.74 17.56 61.70Q20.24 62.66 24.72 62.66 zM38.32 7.62L38.32 7.62Q38.32 4.10 40.12 1.78Q41.92-0.54 45.04-0.54L45.04-0.54Q50.40-0.54 50.40 5.34Q50.40 11.22 44.56 16.42L44.56 16.42Q46.32 17.22 48.24 17.22L48.24 17.22Q53.20 17.22 56.16 13.98Q59.12 10.74 59.12 6.38Q59.12 2.02 55.92-1.02L55.92-1.02Q52-4.54 45.60-4.54Q39.20-4.54 34.72-1.42L34.72-1.42Q27.76 3.54 27.76 11.38L27.76 11.38Q27.76 17.86 32.08 20.82L32.08 20.82Q37.44 19.62 42 16.50L42 16.50Q38.32 13.22 38.32 7.62 zM44.96 0.90L44.96 0.90Q42.56 0.90 41.24 2.74Q39.92 4.58 39.92 7.62L39.92 7.62Q39.92 12.82 43.20 15.54L43.20 15.54Q45.60 13.86 47.20 10.98Q48.80 8.10 48.80 5.30L48.80 5.30Q48.80 0.90 44.96 0.90" style="fill: rgb(248, 196, 113);" transform="translate(-74.080,-23.568)"></path></g><g class="path" style="opacity: 1; transform-origin: 3.96px -1.99px; transform: matrix3d(0.91, 0, 0, 0, 0, 0.91, 0, 0, 0, 0, 0.91, 0, 0, 0, 0, 1); animation: 2.22222s linear -0.88s infinite normal forwards running animate-mcaiv3vezz; transform-box: view-box;"><path d="M73.04 31.70L73.04 31.70L70.16 47.14L60.64 47.14L69.68-3.10Q67.28-2.86 65.68-0.86L65.68-0.86L64.48-1.82Q66.88-4.70 70.52-4.70Q74.16-4.70 76.16-2.86Q78.16-1.02 78.16 2.34L78.16 2.34Q78.16 2.98 78 4.42L78 4.42Q76.16 14.58 74 26.34L74 26.34Q76 21.46 79.76 18.74Q83.52 16.02 87.76 16.02Q92 16.02 93.72 17.70Q95.44 19.38 95.44 21.90Q95.44 24.42 93.92 26.02Q92.40 27.62 89.96 27.62Q87.52 27.62 86.20 26.22Q84.88 24.82 84.88 22.06Q84.88 19.30 86.80 17.86L86.80 17.86Q79.12 18.74 74.56 29.22L74.56 29.22Q75.68 29.06 76.48 29.06L76.48 29.06Q80.72 29.06 83.16 30.74Q85.60 32.42 86.32 34.86Q87.04 37.30 87.36 39.74Q87.68 42.18 88.40 43.86Q89.12 45.54 90.96 45.54Q92.80 45.54 93.84 44.02L93.84 44.02L95.04 44.98Q94.48 46.10 92.56 46.98Q90.64 47.86 87.64 47.86Q84.64 47.86 82.36 46.34Q80.08 44.82 79.20 42.54Q78.32 40.26 77.76 38.02L77.76 38.02Q76.24 32.26 73.04 31.70" style="fill: rgb(181, 131, 68);" transform="translate(-74.080,-23.568)"></path></g><g class="path" style="opacity: 1; transform-origin: 33.16px 8.37px; transform: matrix3d(0.91, 0, 0, 0, 0, 0.91, 0, 0, 0, 0, 0.91, 0, 0, 0, 0, 1); animation: 2.22222s linear -0.586667s infinite normal forwards running animate-mcaiv3vezz; transform-box: view-box;"><path d="M113.92 44.98Q111.52 47.86 107.92 47.86Q104.32 47.86 102.28 46.02Q100.24 44.18 100.24 41.22L100.24 41.22Q100.24 40.18 101.52 32.50L101.52 32.50L104.16 18.18L100.80 18.18L100.96 16.74L104.40 16.74Q110.32 16.74 113.12 16.26L113.12 16.26L114.24 16.02L108.72 46.26Q111.12 46.02 112.72 44.02L112.72 44.02L113.92 44.98" style="fill: rgb(115, 73, 7);" transform="translate(-74.080,-23.568)"></path></g><g class="path" style="opacity: 1; transform-origin: 36.92px -19.35px; transform: matrix3d(0.91, 0, 0, 0, 0, 0.91, 0, 0, 0, 0, 0.91, 0, 0, 0, 0, 1); animation: 2.22222s linear -0.293333s infinite normal forwards running animate-mcaiv3vezz; transform-box: view-box;"><path d="M106.88 8.34Q105.20 6.66 105.20 4.26Q105.20 1.86 106.88 0.14Q108.56-1.58 110.96-1.58Q113.36-1.58 115.08 0.14Q116.80 1.86 116.80 4.26Q116.80 6.66 115.08 8.34Q113.36 10.02 110.96 10.02Q108.56 10.02 106.88 8.34" style="fill: rgb(204, 173, 75);" transform="translate(-74.080,-23.568)"></path></g><g class="path" style="opacity: 1; transform-origin: 62.6px 8.37px; transform: matrix3d(0.91, 0, 0, 0, 0, 0.91, 0, 0, 0, 0, 0.91, 0, 0, 0, 0, 1); animation: 2.22222s linear 0s infinite normal forwards running animate-mcaiv3vezz; transform-box: view-box;"><path d="M149.44 46.26L149.44 46.26Q151.36 46.26 153.44 44.02L153.44 44.02L154.64 44.98Q154.08 46.10 152.16 46.98Q150.24 47.86 147.92 47.86L147.92 47.86Q140.64 47.86 140.64 41.30L140.64 41.30Q140.64 38.50 142.08 31.30Q143.52 24.10 143.52 21.86L143.52 21.86Q143.52 18.42 140.24 18.42L140.24 18.42Q137.60 18.42 135.16 21.86Q132.72 25.30 131.12 31.30L131.12 31.30L128.40 46.26Q130.88 46.02 132.48 44.02L132.48 44.02L133.68 44.98Q131.28 47.86 127.68 47.86Q124.08 47.86 122.04 46.02Q120 44.18 120 41.22L120 41.22Q120 40.10 121.28 32.42L121.28 32.42L123.92 17.62Q121.52 17.86 119.92 19.86L119.92 19.86L118.72 18.90Q121.12 16.02 124.76 16.02Q128.40 16.02 130.40 17.86Q132.40 19.70 132.40 23.06L132.40 23.06L132.40 23.54Q135.68 16.02 142.64 16.02L142.64 16.02Q147.36 16.02 150 18.70Q152.64 21.38 152.64 26.10L152.64 26.10Q152.64 28.58 151.12 35.66Q149.60 42.74 149.44 46.26" style="fill: rgb(248, 196, 113);" transform="translate(-74.080,-23.568)"></path></g></g><text dy="0.35em" fill="#f8c471" font-family="Sail" font-size="72">Skin</text>
</g>
</g><style type="text/css">@keyframes animate-mcaiv3vezz { 0.00% {transform: translate(0.00px,0.00px) rotate(0.00deg) scale(0.91, 0.91) skew(0deg, 0.00deg) ;opacity: 1.00;}4.00% {transform: translate(0.00px,0.00px) rotate(0.00deg) scale(0.91, 0.91) ;}8.00% {animation-timing-function: cubic-bezier(0.69,0.60,0.35,0.27);transform: translate(0.00px,0.00px) rotate(0.00deg) scale(0.91, 0.91) ;}14.00% {transform: translate(0.00px,0.00px) rotate(0.00deg) scale(0.93, 0.93) ;}18.00% {transform: translate(0.00px,0.00px) rotate(0.00deg) scale(0.94, 0.94) ;}22.00% {animation-timing-function: cubic-bezier(0.67,0.66,0.34,0.33);transform: translate(0.00px,0.00px) rotate(0.00deg) scale(0.96, 0.96) ;}26.00% {transform: translate(0.00px,0.00px) rotate(0.00deg) scale(0.97, 0.97) ;}30.00% {transform: translate(0.00px,0.00px) rotate(0.00deg) scale(0.99, 0.99) ;}34.00% {animation-timing-function: cubic-bezier(0.65,0.71,0.32,0.38);transform: translate(0.00px,0.00px) rotate(0.00deg) scale(1.01, 1.01) ;}40.00% {animation-timing-function: cubic-bezier(0.64,0.74,0.31,0.41);transform: translate(0.00px,0.00px) rotate(0.00deg) scale(1.02, 1.02) ;}46.00% {animation-timing-function: cubic-bezier(0.60,0.91,0.23,0.63);transform: translate(0.00px,0.00px) rotate(0.00deg) scale(1.03, 1.03) ;}50.00% {transform: translate(0.00px,0.00px) rotate(0.00deg) scale(1.03, 1.03) ;}54.00% {transform: translate(0.00px,0.00px) rotate(0.00deg) scale(1.03, 1.03) ;}58.00% {animation-timing-function: cubic-bezier(0.69,0.60,0.35,0.27);transform: translate(0.00px,0.00px) rotate(0.00deg) scale(1.03, 1.03) ;}64.00% {transform: translate(0.00px,0.00px) rotate(0.00deg) scale(1.01, 1.01) ;}68.00% {transform: translate(0.00px,0.00px) rotate(0.00deg) scale(1.00, 1.00) ;}72.00% {animation-timing-function: cubic-bezier(0.67,0.66,0.34,0.33);transform: translate(0.00px,0.00px) rotate(0.00deg) scale(0.98, 0.98) ;}76.00% {animation-timing-function: cubic-bezier(0.66,0.68,0.33,0.35);transform: translate(0.00px,0.00px) rotate(0.00deg) scale(0.97, 0.97) ;}82.00% {animation-timing-function: cubic-bezier(0.65,0.71,0.32,0.38);transform: translate(0.00px,0.00px) rotate(0.00deg) scale(0.94, 0.94) ;}88.00% {animation-timing-function: cubic-bezier(0.65,0.73,0.31,0.40);transform: translate(0.00px,0.00px) rotate(0.00deg) scale(0.92, 0.92) ;}94.00% {animation-timing-function: cubic-bezier(0.63,0.80,0.28,0.48);transform: translate(0.00px,0.00px) rotate(0.00deg) scale(0.91, 0.91) ;}100.00% {animation-timing-function: cubic-bezier(0.63,0.80,0.28,0.48);transform: translate(0.00px,0.00px) rotate(0.00deg) scale(0.91, 0.91) ;} }</style><!-- [ldio] generated by https://loading.io --></svg>